HIERARCHY
ROOT Hips
{
	OFFSET 0.000000 35.082581 0.000000
	CHANNELS 6 Xposition Yposition Zposition Xrotation Yrotation Zrotation 
	JOINT Spine
	{
		OFFSET 0.000000 6.876099 0.125700
		CHANNELS 3 Xrotation Yrotation Zrotation
		JOINT Spine1
		{
			OFFSET 0.000000 5.730043 0.104720
			CHANNELS 3 Xrotation Yrotation Zrotation
			JOINT Spine1_split
			{
				OFFSET 0.000000 5.730043 0.104720
				CHANNELS 3 Xrotation Yrotation Zrotation
				JOINT Spine2
				{
					OFFSET 0.000000 5.730043 0.104720
					CHANNELS 3 Xrotation Yrotation Zrotation
					JOINT Neck
					{
						OFFSET 0.000000 10.314075 0.188496
						CHANNELS 3 Xrotation Yrotation Zrotation
						JOINT Head
						{
							OFFSET 0.000000 7.643700 -2.377400
							CHANNELS 3 Xrotation Yrotation Zrotation
							JOINT HeadTop_End
							{
								OFFSET 0.000000 43.788605 -13.619600
								CHANNELS 3 Xrotation Yrotation Zrotation
								End Site
								{
									OFFSET 0.000000 0.000000 0.000000
								}
							}
						}
					}
					JOINT LeftShoulder
					{
						OFFSET 2.196100 4.412489 0.087492
						CHANNELS 3 Xrotation Yrotation Zrotation
						JOINT LeftShoulder_split
						{
							OFFSET 2.196100 4.412489 0.087492
							CHANNELS 3 Xrotation Yrotation Zrotation
							JOINT LeftArm
							{
								OFFSET 8.771219 -2.981674 -0.026999
								CHANNELS 3 Xrotation Yrotation Zrotation
								JOINT LeftForeArm
								{
									OFFSET 8.512804 0.000000 -0.000000
									CHANNELS 3 Xrotation Yrotation Zrotation
									JOINT LeftHand
									{
										OFFSET 18.484802 0.000000 -0.000000
										CHANNELS 3 Xrotation Yrotation Zrotation
										JOINT LeftHandThumb1
										{
											OFFSET 2.499420 -1.158070 2.653252
											CHANNELS 3 Xrotation Yrotation Zrotation
											JOINT LeftHandThumb2
											{
												OFFSET 2.370079 -1.368366 1.368366
												CHANNELS 3 Xrotation Yrotation Zrotation
												JOINT LeftHandThumb3
												{
													OFFSET 2.676727 -1.545410 1.545409
													CHANNELS 3 Xrotation Yrotation Zrotation
													JOINT LeftHandThumb4
													{
														OFFSET 1.692226 -0.977005 0.977007
														CHANNELS 3 Xrotation Yrotation Zrotation
														End Site
														{
															OFFSET 0.000000 0.000000 0.000000
														}
													}
												}
											}
										}
										JOINT LeftHandIndex1
										{
											OFFSET 7.924831 -0.457527 2.345128
											CHANNELS 3 Xrotation Yrotation Zrotation
											JOINT LeftHandIndex2
											{
												OFFSET 3.643303 0.000000 0.000000
												CHANNELS 3 Xrotation Yrotation Zrotation
												JOINT LeftHandIndex3
												{
													OFFSET 3.810799 0.000000 0.000000
													CHANNELS 3 Xrotation Yrotation Zrotation
													JOINT LeftHandIndex4
													{
														OFFSET 2.403702 0.000000 0.000000
														CHANNELS 3 Xrotation Yrotation Zrotation
														End Site
														{
															OFFSET 0.000000 0.000000 0.000000
														}
													}
												}
											}
										}
										JOINT LeftHandMiddle1
										{
											OFFSET 8.563995 0.000000 -0.000000
											CHANNELS 3 Xrotation Yrotation Zrotation
											JOINT LeftHandMiddle2
											{
												OFFSET 3.861618 0.000000 0.000000
												CHANNELS 3 Xrotation Yrotation Zrotation
												JOINT LeftHandMiddle3
												{
													OFFSET 3.701603 0.000000 0.000000
													CHANNELS 3 Xrotation Yrotation Zrotation
													JOINT LeftHandMiddle4
													{
														OFFSET 2.322544 0.000000 0.000000
														CHANNELS 3 Xrotation Yrotation Zrotation
														End Site
														{
															OFFSET 0.000000 0.000000 0.000000
														}
													}
												}
											}
										}
										JOINT LeftHandRing1
										{
											OFFSET 8.426460 -0.424637 -3.286992
											CHANNELS 3 Xrotation Yrotation Zrotation
											JOINT LeftHandRing2
											{
												OFFSET 3.126408 0.000000 0.000000
												CHANNELS 3 Xrotation Yrotation Zrotation
												JOINT LeftHandRing3
												{
													OFFSET 3.085026 0.000000 0.000000
													CHANNELS 3 Xrotation Yrotation Zrotation
													JOINT LeftHandRing4
													{
														OFFSET 1.644005 0.000000 0.000000
														CHANNELS 3 Xrotation Yrotation Zrotation
														End Site
														{
															OFFSET 0.000000 0.000000 0.000000
														}
													}
												}
											}
										}
									}
								}
							}
						}
					}
					JOINT RightShoulder
					{
						OFFSET -2.196100 4.412496 0.070690
						CHANNELS 3 Xrotation Yrotation Zrotation
						JOINT RightShoulder_split
						{
							OFFSET -2.196100 4.412496 0.070690
							CHANNELS 3 Xrotation Yrotation Zrotation
							JOINT RightArm
							{
								OFFSET -8.771282 -2.981682 -0.094208
								CHANNELS 3 Xrotation Yrotation Zrotation
								JOINT RightForeArm
								{
									OFFSET -8.494598 0.000000 0.000000
									CHANNELS 3 Xrotation Yrotation Zrotation
									JOINT RightHand
									{
										OFFSET -18.483803 0.000000 0.000001
										CHANNELS 3 Xrotation Yrotation Zrotation
										JOINT RightHandThumb1
										{
											OFFSET -2.527351 -1.008072 2.575253
											CHANNELS 3 Xrotation Yrotation Zrotation
											JOINT RightHandThumb2
											{
												OFFSET -2.321518 -1.340328 1.340329
												CHANNELS 3 Xrotation Yrotation Zrotation
												JOINT RightHandThumb3
												{
													OFFSET -2.657753 -1.534454 1.534455
													CHANNELS 3 Xrotation Yrotation Zrotation
													JOINT RightHandThumb4
													{
														OFFSET -1.807510 -1.043568 1.043567
														CHANNELS 3 Xrotation Yrotation Zrotation
														End Site
														{
															OFFSET 0.000000 0.000000 0.000000
														}
													}
												}
											}
										}
										JOINT RightHandIndex1
										{
											OFFSET -8.811420 0.015533 2.887987
											CHANNELS 3 Xrotation Yrotation Zrotation
											JOINT RightHandIndex2
											{
												OFFSET -3.537502 0.000000 0.000000
												CHANNELS 3 Xrotation Yrotation Zrotation
												JOINT RightHandIndex3
												{
													OFFSET -3.356201 0.000000 0.000000
													CHANNELS 3 Xrotation Yrotation Zrotation
													JOINT RightHandIndex4
													{
														OFFSET -1.933098 0.000000 0.000000
														CHANNELS 3 Xrotation Yrotation Zrotation
														End Site
														{
															OFFSET 0.000000 0.000000 0.000000
														}
													}
												}
											}
										}
										JOINT RightHandMiddle1
										{
											OFFSET -8.178135 0.000000 0.000000
											CHANNELS 3 Xrotation Yrotation Zrotation
											JOINT RightHandMiddle2
											{
												OFFSET -3.901302 0.000000 0.000000
												CHANNELS 3 Xrotation Yrotation Zrotation
												JOINT RightHandMiddle3
												{
													OFFSET -3.909599 0.000000 0.000000
													CHANNELS 3 Xrotation Yrotation Zrotation
													JOINT RightHandMiddle4
													{
														OFFSET -2.376003 0.000000 0.000000
														CHANNELS 3 Xrotation Yrotation Zrotation
														End Site
														{
															OFFSET 0.000000 0.000000 0.000000
														}
													}
												}
											}
										}
										JOINT RightHandRing1
										{
											OFFSET -7.559013 0.014137 -2.865403
											CHANNELS 3 Xrotation Yrotation Zrotation
											JOINT RightHandRing2
											{
												OFFSET -3.449306 0.000000 0.000000
												CHANNELS 3 Xrotation Yrotation Zrotation
												JOINT RightHandRing3
												{
													OFFSET -3.362106 0.000000 0.000000
													CHANNELS 3 Xrotation Yrotation Zrotation
													JOINT RightHandRing4
													{
														OFFSET -2.076401 0.000000 0.000000
														CHANNELS 3 Xrotation Yrotation Zrotation
														End Site
														{
															OFFSET 0.000000 0.000000 0.000000
														}
													}
												}
											}
										}
									}
								}
							}
						}
					}
				}
			}
		}
	}
	JOINT LeftUpLeg
	{
		OFFSET 10.205400 -3.823500 0.155100
		CHANNELS 3 Xrotation Yrotation Zrotation
		JOINT LeftLeg
		{
			OFFSET 0.708757 -12.982077 0.567790
			CHANNELS 3 Xrotation Yrotation Zrotation
			JOINT LeftFoot
			{
				OFFSET -0.708756 -10.717838 -2.184338
				CHANNELS 3 Xrotation Yrotation Zrotation
				JOINT LeftToeBase
				{
					OFFSET 0.108149 -7.191104 7.560241
					CHANNELS 3 Xrotation Yrotation Zrotation
					JOINT LeftToe_End
					{
						OFFSET 0.070230 0.081724 4.490308
						CHANNELS 3 Xrotation Yrotation Zrotation
						End Site
						{
							OFFSET 0.000000 0.000000 0.000000
						}
					}
				}
			}
		}
	}
	JOINT RightUpLeg
	{
		OFFSET -10.205400 -3.823500 0.005500
		CHANNELS 3 Xrotation Yrotation Zrotation
		JOINT RightLeg
		{
			OFFSET -0.708756 -12.982134 0.610632
			CHANNELS 3 Xrotation Yrotation Zrotation
			JOINT RightFoot
			{
				OFFSET 0.708754 -10.717769 -1.945823
				CHANNELS 3 Xrotation Yrotation Zrotation
				JOINT RightToeBase
				{
					OFFSET -0.108140 -7.191069 7.372968
					CHANNELS 3 Xrotation Yrotation Zrotation
					JOINT RightToe_End
					{
						OFFSET -0.070227 0.081735 4.479403
						CHANNELS 3 Xrotation Yrotation Zrotation
						End Site
						{
							OFFSET 0.000000 0.000000 0.000000
						}
					}
				}
			}
		}
	}
}
MOTION
Frames: 5
Frame Time: 0.016667
-2.780600 37.329826 77.135452 19.864557 8.681196 -1.215761 -2.296887 -0.461624 0.380512 -4.594410 -1.061327 0.101277 0.000000 0.000000 0.000000 -4.594413 -1.061325 0.101278 -4.837210 3.021061 -5.623374 -32.648280 -0.269689 4.329764 0.000000 -0.000000 0.000000 10.044627 0.256259 32.051182 0.000000 0.000000 0.000000 -48.561723 -10.210833 11.799412 -38.609891 -41.548519 -5.423208 -8.226034 -2.522774 4.213893 -23.472538 9.007659 3.988063 -11.828226 8.162157 13.621967 -0.000003 0.000011 0.000008 -0.000002 -0.000000 -0.000002 0.517230 -9.570573 -64.785505 -8.375112 -2.932944 -78.721591 0.000012 0.000008 0.000001 0.000001 0.000000 0.000002 -5.938110 -5.207422 -62.769630 -4.744691 -4.396639 -66.090106 0.000013 0.000002 -0.000004 0.000001 -0.000000 0.000001 -10.844907 5.489519 -65.803887 -0.072871 -6.647463 -74.360037 0.000004 -0.000001 0.000002 0.000000 0.000001 -0.000002 -8.323197 -24.135447 -40.312688 0.000000 0.000000 0.000000 -89.460377 26.675427 38.968268 -28.899586 50.290878 -7.128680 27.282132 -4.258684 14.891578 -17.327374 6.468823 -26.575875 3.068483 -20.322335 1.170424 0.000005 0.000005 -0.000006 -0.000002 0.000000 -0.000000 -7.162304 5.305849 74.913132 -5.538910 0.850716 81.608056 -0.000005 0.000001 0.000001 0.000000 -0.000000 0.000000 -11.692889 2.849411 77.860270 -5.590881 1.103045 82.945387 0.000005 -0.000000 0.000005 -0.000001 0.000000 0.000000 -13.276871 -6.839414 73.034899 -0.147256 7.076627 77.106525 0.000006 -0.000004 0.000000 -0.000002 -0.000000 0.000000 -9.062572 10.884809 12.565861 49.234493 16.021940 -1.031604 5.735979 -0.164397 -1.680610 -0.014927 -0.021877 0.065431 -0.000000 0.000001 -0.000001 -67.480794 -25.551511 -13.851232 47.374595 1.356933 -13.962516 32.051769 2.457968 2.032997 -0.159034 2.742571 -0.470883 -0.000002 -0.000000 0.000001 
-2.803823 36.486221 79.001328 17.726291 9.304914 -1.437866 -2.112377 -0.542591 0.432304 -4.226091 -1.236036 0.160241 0.000000 0.000000 0.000000 -4.226096 -1.236039 0.160241 -3.390464 3.136789 -5.040333 -32.061424 -0.495306 4.132350 0.000002 0.000001 0.000000 9.560700 1.178732 31.958585 0.000000 0.000000 0.000000 -47.982157 -11.494739 12.850391 -37.736187 -39.139569 -4.480672 -9.326646 -3.180905 7.039134 -23.461922 9.089810 3.969051 -11.828220 8.162137 13.621969 -0.000007 0.000010 0.000006 0.000003 -0.000000 -0.000004 0.903528 -9.378171 -63.393363 -8.389082 -2.928306 -78.861207 0.000012 0.000008 0.000003 0.000000 0.000000 0.000002 -5.628302 -5.175338 -61.630006 -4.775321 -4.405090 -66.429081 0.000014 0.000001 0.000000 -0.000000 -0.000000 0.000004 -10.813731 5.370627 -64.788470 -0.084363 -6.654566 -74.482803 0.000001 -0.000002 -0.000000 0.000000 -0.000002 -0.000000 -8.892197 -24.277764 -41.378218 0.000000 0.000000 0.000000 -86.632706 27.564734 36.099414 -30.016612 48.103581 -7.287916 26.156945 -4.467090 12.106702 -17.327372 6.468829 -26.575889 3.068483 -20.322338 1.170432 0.000006 0.000008 -0.000000 0.000002 0.000003 0.000003 -7.160170 4.909968 76.768874 -5.512913 0.851708 81.188519 -0.000005 0.000001 0.000001 0.000001 -0.000000 -0.000001 -11.756436 2.715991 78.851290 -5.590512 1.102823 82.959956 0.000005 -0.000000 0.000005 0.000001 0.000000 -0.000000 -13.231559 -7.033044 74.164462 -0.159610 7.085956 77.218820 0.000008 -0.000003 0.000000 -0.000001 0.000000 0.000001 -7.630465 9.100787 12.268365 47.730554 17.904801 -2.263812 5.006001 -0.511438 -2.156511 -0.009433 -0.014175 0.065450 -0.000002 -0.000001 -0.000000 -68.812558 -25.046099 -13.828153 49.654382 0.833822 -14.352376 31.189530 1.532379 0.799356 -0.181657 3.226731 -0.589711 -0.000001 0.000000 0.000001 
-2.818403 35.687553 80.842125 15.548748 9.953906 -1.649637 -1.878373 -0.636503 0.487660 -3.758561 -1.458366 0.264353 0.000000 0.000000 0.000000 -3.758560 -1.458362 0.264353 -2.312997 3.118227 -4.492907 -31.180053 -0.574888 3.975778 0.000001 -0.000001 -0.000000 9.718431 1.273663 32.721917 0.000000 0.000000 0.000000 -47.199848 -10.995450 14.448386 -37.509343 -36.402955 -3.708625 -10.609615 -4.159274 8.444635 -23.450763 9.176015 3.949035 -11.828236 8.162145 13.621987 -0.000001 0.000008 0.000011 -0.000000 0.000000 -0.000000 1.276593 -9.117646 -62.457080 -8.382886 -2.930003 -78.798403 0.000012 0.000008 0.000005 0.000000 0.000000 0.000000 -5.280025 -5.045767 -60.690814 -4.795418 -4.410510 -66.652456 0.000012 0.000001 0.000000 0.000001 -0.000000 0.000002 -10.792181 5.278068 -63.907000 -0.092891 -6.659748 -74.573508 0.000001 -0.000001 -0.000002 -0.000000 -0.000001 -0.000004 -8.350560 -23.530584 -42.083186 0.000000 0.000000 0.000000 -83.150101 28.065867 30.864611 -31.664357 45.607454 -6.457765 24.627316 -4.700908 9.780972 -17.327370 6.468807 -26.575899 3.068482 -20.322319 1.170427 0.000005 0.000006 -0.000007 -0.000000 -0.000002 -0.000000 -7.022620 4.477206 78.237679 -5.477278 0.852848 80.617604 -0.000005 0.000001 0.000002 -0.000000 0.000000 0.000001 -11.748798 2.655324 79.261627 -5.590944 1.102356 83.000452 0.000006 -0.000000 0.000006 -0.000000 -0.000000 0.000000 -13.176021 -7.192362 75.017429 -0.177989 7.099723 77.385401 0.000009 -0.000004 -0.000001 -0.000000 -0.000000 0.000001 -7.411831 6.755825 11.920204 47.988793 19.175372 -3.462083 3.321396 -0.780119 -3.242132 -0.005044 -0.008049 0.065450 0.000001 0.000000 -0.000000 -69.786044 -24.606501 -13.684547 52.558265 0.266291 -15.096362 29.551490 0.602051 0.033278 0.199612 2.810088 -0.883534 -0.000000 0.000001 0.000000 
-2.831650 35.255829 82.678551 13.418630 10.624398 -1.859248 -1.570284 -0.751537 0.569614 -3.141676 -1.730184 0.476075 0.000000 0.000000 0.000000 -3.141673 -1.730181 0.476075 -2.080885 2.816535 -4.488245 -29.703577 -0.759591 4.181482 -0.000001 0.000000 0.000000 10.358789 0.430470 33.938612 0.000000 0.000000 0.000000 -46.303054 -6.882826 15.495951 -38.881863 -37.359502 -3.729812 -11.776477 -3.759859 8.715746 -23.439377 9.263876 3.928519 -11.828221 8.162094 13.621942 -0.000002 0.000008 0.000011 -0.000001 -0.000001 -0.000002 1.545914 -8.908090 -61.901103 -8.376386 -2.931801 -78.732704 0.000012 0.000008 0.000002 0.000000 0.000000 0.000000 -5.021051 -4.932617 -60.084805 -4.812818 -4.415198 -66.846884 0.000012 0.000002 -0.000005 -0.000000 0.000000 -0.000001 -10.776126 5.182481 -63.138965 -0.100360 -6.664239 -74.651318 0.000002 -0.000002 0.000004 -0.000000 0.000000 0.000000 -7.764621 -22.718971 -42.791115 0.000000 0.000000 0.000000 -79.909744 26.708355 26.192532 -32.094714 45.832813 -5.888945 22.708559 -5.865422 8.746419 -17.327367 6.468853 -26.575885 3.068453 -20.322278 1.170418 0.000007 0.000008 -0.000005 -0.000003 -0.000002 -0.000000 -6.865597 4.152979 79.210305 -5.445864 0.853610 80.114738 -0.000005 0.000001 0.000002 0.000000 -0.000000 0.000001 -11.662143 2.647372 79.130043 -5.594058 1.101171 83.124010 0.000006 -0.000000 0.000005 -0.000000 -0.000000 0.000001 -13.125741 -7.256940 75.195035 -0.202097 7.117660 77.603435 0.000008 -0.000003 0.000002 0.000000 -0.000000 -0.000000 -8.375956 5.902845 11.373537 47.258905 18.785372 -3.245497 2.187031 -0.979397 -4.130764 -8.002340 1.274655 -8.989950 -0.000000 -0.000002 -0.000000 -68.979214 -24.633613 -13.725939 53.229686 -0.418298 -14.978847 28.305139 0.356310 -1.446677 0.026668 1.702338 0.096026 0.000004 -0.000000 0.000001 
-2.815716 35.114944 84.506180 11.413945 11.278547 -2.076002 -1.332856 -0.887446 0.593222 -2.665330 -2.036628 0.637363 0.000000 0.000000 0.000000 -2.665334 -2.036633 0.637363 -0.982932 2.569755 -4.265421 -28.250608 -0.913073 4.381822 -0.000002 0.000001 0.000000 11.255587 -1.044330 34.818686 0.000000 0.000000 0.000000 -45.524256 -2.444853 17.049001 -40.454739 -38.976983 -4.141850 -12.797419 -3.113521 7.411126 -23.428046 9.351071 3.908075 -11.828230 8.162111 13.621945 -0.000004 0.000009 0.000011 -0.000003 -0.000003 -0.000002 1.630083 -8.827831 -61.926812 -8.374802 -2.932120 -78.716550 0.000012 0.000008 -0.000001 0.000000 0.000000 0.000003 -4.933163 -4.892601 -60.057437 -4.827758 -4.419262 -67.015385 0.000012 0.000002 -0.000003 0.000001 -0.000000 0.000003 -10.767343 5.073040 -62.540996 -0.107078 -6.668243 -74.719811 0.000001 0.000001 0.000003 -0.000000 -0.000001 -0.000005 -6.438596 -21.372996 -43.150471 0.000000 0.000000 0.000000 -76.035565 24.047202 21.266800 -32.687752 48.066111 -5.222112 20.533739 -7.635235 8.929435 -17.327355 6.468838 -26.575875 3.068464 -20.322297 1.170440 0.000006 0.000007 -0.000007 -0.000001 0.000000 -0.000000 -6.713615 3.979777 79.472584 -5.421794 0.854015 79.728942 -0.000005 0.000001 0.000003 0.000000 -0.000000 0.000000 -11.467585 2.706363 78.259064 -5.600953 1.098949 83.363606 0.000004 -0.000000 0.000005 0.000000 0.000000 0.000000 -13.087604 -7.189136 74.418258 -0.233996 7.141208 77.891238 0.000006 -0.000004 0.000001 0.000001 -0.000001 -0.000002 -10.344243 5.744523 10.904085 46.155693 17.178366 -2.505520 1.291626 -0.961696 -4.919101 -13.810776 4.093986 -16.229537 0.000001 -0.000001 0.000001 -66.788404 -24.981521 -13.810680 52.248222 -0.378322 -14.214692 27.465137 -0.079665 -3.031287 -0.445033 0.255596 0.671074 0.000002 0.000000 -0.000000 
